<mxfile host="Electron" agent="Mozilla/5.0 (Windows NT 10.0; Win64; x64) AppleWebKit/537.36 (KHTML, like Gecko) draw.io/24.7.8 Chrome/128.0.6613.36 Electron/32.0.1 Safari/537.36" version="24.7.8" pages="4">
  <diagram id="yD41q_ttQtiCNYoje5j7" name="limiting-value">
    <mxGraphModel dx="496" dy="703" grid="1" gridSize="10" guides="1" tooltips="1" connect="1" arrows="1" fold="1" page="1" pageScale="1" pageWidth="850" pageHeight="1100" math="1" shadow="0">
      <root>
        <mxCell id="0" />
        <mxCell id="1" parent="0" />
        <mxCell id="wHKlBaQhpD_CNf1N9NFs-1" value="advice" style="whiteSpace=wrap;html=1;fillColor=#a0522d;fontColor=#ffffff;strokeColor=#6D1F00;" vertex="1" parent="1">
          <mxGeometry x="340" y="680" width="60" height="20" as="geometry" />
        </mxCell>
        <mxCell id="wHKlBaQhpD_CNf1N9NFs-2" value="" style="whiteSpace=wrap;html=1;fillColor=#ffcc99;strokeColor=#36393d;opacity=30;" vertex="1" parent="1">
          <mxGeometry x="340" y="700" width="60" height="20" as="geometry" />
        </mxCell>
        <mxCell id="wHKlBaQhpD_CNf1N9NFs-3" value="a" style="whiteSpace=wrap;html=1;fillColor=#ffcc99;strokeColor=#36393d;" vertex="1" parent="1">
          <mxGeometry x="340" y="720" width="60" height="20" as="geometry" />
        </mxCell>
        <mxCell id="wHKlBaQhpD_CNf1N9NFs-4" value="" style="whiteSpace=wrap;html=1;fillColor=#ffcc99;strokeColor=#36393d;opacity=30;" vertex="1" parent="1">
          <mxGeometry x="340" y="740" width="60" height="20" as="geometry" />
        </mxCell>
        <mxCell id="wHKlBaQhpD_CNf1N9NFs-9" value="selector" style="whiteSpace=wrap;html=1;fillColor=#647687;fontColor=#ffffff;strokeColor=#314354;" vertex="1" parent="1">
          <mxGeometry x="400" y="680" width="60" height="20" as="geometry" />
        </mxCell>
        <mxCell id="wHKlBaQhpD_CNf1N9NFs-10" value="" style="whiteSpace=wrap;html=1;fillColor=#f9f7ed;strokeColor=#36393d;opacity=30;" vertex="1" parent="1">
          <mxGeometry x="400" y="700" width="60" height="20" as="geometry" />
        </mxCell>
        <mxCell id="wHKlBaQhpD_CNf1N9NFs-11" value="s" style="whiteSpace=wrap;html=1;fillColor=#f9f7ed;strokeColor=#36393d;" vertex="1" parent="1">
          <mxGeometry x="400" y="720" width="60" height="20" as="geometry" />
        </mxCell>
        <mxCell id="wHKlBaQhpD_CNf1N9NFs-12" value="" style="whiteSpace=wrap;html=1;fillColor=#f9f7ed;strokeColor=#36393d;opacity=30;" vertex="1" parent="1">
          <mxGeometry x="400" y="740" width="60" height="20" as="geometry" />
        </mxCell>
        <mxCell id="wHKlBaQhpD_CNf1N9NFs-13" value="Gate:&lt;div&gt;s × (a - 1)(a - 2)(a - 3) = 0&lt;/div&gt;" style="text;html=1;align=left;verticalAlign=middle;resizable=0;points=[];autosize=1;strokeColor=none;fillColor=none;" vertex="1" parent="1">
          <mxGeometry x="480" y="670" width="160" height="40" as="geometry" />
        </mxCell>
        <mxCell id="wHKlBaQhpD_CNf1N9NFs-17" value="a=1" style="whiteSpace=wrap;html=1;fillColor=#ffcc99;strokeColor=#009900;" vertex="1" parent="1">
          <mxGeometry x="480" y="720" width="60" height="20" as="geometry" />
        </mxCell>
        <mxCell id="wHKlBaQhpD_CNf1N9NFs-18" value="a=2" style="whiteSpace=wrap;html=1;fillColor=#ffcc99;strokeColor=#009900;" vertex="1" parent="1">
          <mxGeometry x="480" y="740" width="60" height="20" as="geometry" />
        </mxCell>
        <mxCell id="wHKlBaQhpD_CNf1N9NFs-19" value="a=4" style="whiteSpace=wrap;html=1;fillColor=#ffcc99;strokeColor=#FF0000;" vertex="1" parent="1">
          <mxGeometry x="560" y="720" width="60" height="20" as="geometry" />
        </mxCell>
        <mxCell id="wHKlBaQhpD_CNf1N9NFs-20" value="a=99" style="whiteSpace=wrap;html=1;fillColor=#ffcc99;strokeColor=#FF0000;" vertex="1" parent="1">
          <mxGeometry x="560" y="740" width="60" height="20" as="geometry" />
        </mxCell>
        <mxCell id="DgfV7MKOi3RvaUzbQuri-1" value="❌" style="text;whiteSpace=wrap;align=center;verticalAlign=middle;" parent="1" vertex="1">
          <mxGeometry x="600" y="720" width="20" height="20" as="geometry" />
        </mxCell>
        <mxCell id="DgfV7MKOi3RvaUzbQuri-2" value="✅" style="text;whiteSpace=wrap;align=center;verticalAlign=middle;" parent="1" vertex="1">
          <mxGeometry x="520" y="720" width="20" height="20" as="geometry" />
        </mxCell>
        <mxCell id="wHKlBaQhpD_CNf1N9NFs-14" value="✅" style="text;whiteSpace=wrap;align=center;verticalAlign=middle;" vertex="1" parent="1">
          <mxGeometry x="520" y="740" width="20" height="20" as="geometry" />
        </mxCell>
        <mxCell id="wHKlBaQhpD_CNf1N9NFs-16" value="❌" style="text;whiteSpace=wrap;align=center;verticalAlign=middle;" vertex="1" parent="1">
          <mxGeometry x="600" y="740" width="20" height="20" as="geometry" />
        </mxCell>
      </root>
    </mxGraphModel>
  </diagram>
  <diagram name="if-else" id="VmzAFvz2YG9kp459CxH5">
    <mxGraphModel dx="701" dy="994" grid="1" gridSize="10" guides="1" tooltips="1" connect="1" arrows="1" fold="1" page="1" pageScale="1" pageWidth="850" pageHeight="1100" math="1" shadow="0">
      <root>
        <mxCell id="BrMgeqKoToxfEwKKxOOW-0" />
        <mxCell id="BrMgeqKoToxfEwKKxOOW-1" parent="BrMgeqKoToxfEwKKxOOW-0" />
        <mxCell id="BrMgeqKoToxfEwKKxOOW-2" value="advice" style="whiteSpace=wrap;html=1;fillColor=#a0522d;fontColor=#ffffff;strokeColor=#6D1F00;" vertex="1" parent="BrMgeqKoToxfEwKKxOOW-1">
          <mxGeometry x="240" y="680" width="160" height="20" as="geometry" />
        </mxCell>
        <mxCell id="BrMgeqKoToxfEwKKxOOW-6" value="selector" style="whiteSpace=wrap;html=1;fillColor=#647687;fontColor=#ffffff;strokeColor=#314354;" vertex="1" parent="BrMgeqKoToxfEwKKxOOW-1">
          <mxGeometry x="400" y="680" width="60" height="20" as="geometry" />
        </mxCell>
        <mxCell id="BrMgeqKoToxfEwKKxOOW-7" value="" style="whiteSpace=wrap;html=1;fillColor=#f9f7ed;strokeColor=#36393d;opacity=30;" vertex="1" parent="BrMgeqKoToxfEwKKxOOW-1">
          <mxGeometry x="400" y="700" width="60" height="20" as="geometry" />
        </mxCell>
        <mxCell id="BrMgeqKoToxfEwKKxOOW-8" value="s" style="whiteSpace=wrap;html=1;fillColor=#f9f7ed;strokeColor=#36393d;" vertex="1" parent="BrMgeqKoToxfEwKKxOOW-1">
          <mxGeometry x="400" y="720" width="60" height="20" as="geometry" />
        </mxCell>
        <mxCell id="BrMgeqKoToxfEwKKxOOW-9" value="" style="whiteSpace=wrap;html=1;fillColor=#f9f7ed;strokeColor=#36393d;opacity=30;" vertex="1" parent="BrMgeqKoToxfEwKKxOOW-1">
          <mxGeometry x="400" y="740" width="60" height="20" as="geometry" />
        </mxCell>
        <mxCell id="BrMgeqKoToxfEwKKxOOW-10" value="&lt;div&gt;if c {a} else {b}&lt;br&gt;&lt;/div&gt;&lt;div&gt;&lt;br&gt;&lt;/div&gt;Gates:&lt;div&gt;s × (c ×&amp;nbsp;a + (1 - c) ×&amp;nbsp;b - out) = 0&lt;/div&gt;&lt;div&gt;s ×&amp;nbsp;c ×&amp;nbsp;(1 - c) = 0&lt;/div&gt;" style="text;html=1;align=left;verticalAlign=middle;resizable=0;points=[];autosize=1;strokeColor=none;fillColor=none;" vertex="1" parent="BrMgeqKoToxfEwKKxOOW-1">
          <mxGeometry x="240" y="760" width="190" height="90" as="geometry" />
        </mxCell>
        <mxCell id="BrMgeqKoToxfEwKKxOOW-11" value="" style="whiteSpace=wrap;html=1;fillColor=#ffcc99;strokeColor=#36393d;opacity=30;" vertex="1" parent="BrMgeqKoToxfEwKKxOOW-1">
          <mxGeometry x="360" y="700" width="40" height="20" as="geometry" />
        </mxCell>
        <mxCell id="BrMgeqKoToxfEwKKxOOW-12" value="out" style="whiteSpace=wrap;html=1;fillColor=#ffcc99;strokeColor=#36393d;" vertex="1" parent="BrMgeqKoToxfEwKKxOOW-1">
          <mxGeometry x="360" y="720" width="40" height="20" as="geometry" />
        </mxCell>
        <mxCell id="BrMgeqKoToxfEwKKxOOW-13" value="" style="whiteSpace=wrap;html=1;fillColor=#ffcc99;strokeColor=#36393d;opacity=30;" vertex="1" parent="BrMgeqKoToxfEwKKxOOW-1">
          <mxGeometry x="360" y="740" width="40" height="20" as="geometry" />
        </mxCell>
        <mxCell id="BrMgeqKoToxfEwKKxOOW-14" value="" style="whiteSpace=wrap;html=1;fillColor=#ffcc99;strokeColor=#36393d;opacity=30;" vertex="1" parent="BrMgeqKoToxfEwKKxOOW-1">
          <mxGeometry x="320" y="700" width="40" height="20" as="geometry" />
        </mxCell>
        <mxCell id="BrMgeqKoToxfEwKKxOOW-15" value="c" style="whiteSpace=wrap;html=1;fillColor=#ffcc99;strokeColor=#36393d;" vertex="1" parent="BrMgeqKoToxfEwKKxOOW-1">
          <mxGeometry x="320" y="720" width="40" height="20" as="geometry" />
        </mxCell>
        <mxCell id="BrMgeqKoToxfEwKKxOOW-16" value="" style="whiteSpace=wrap;html=1;fillColor=#ffcc99;strokeColor=#36393d;opacity=30;" vertex="1" parent="BrMgeqKoToxfEwKKxOOW-1">
          <mxGeometry x="320" y="740" width="40" height="20" as="geometry" />
        </mxCell>
        <mxCell id="BrMgeqKoToxfEwKKxOOW-17" value="" style="whiteSpace=wrap;html=1;fillColor=#ffcc99;strokeColor=#36393d;opacity=30;" vertex="1" parent="BrMgeqKoToxfEwKKxOOW-1">
          <mxGeometry x="280" y="700" width="40" height="20" as="geometry" />
        </mxCell>
        <mxCell id="BrMgeqKoToxfEwKKxOOW-18" value="b" style="whiteSpace=wrap;html=1;fillColor=#ffcc99;strokeColor=#36393d;" vertex="1" parent="BrMgeqKoToxfEwKKxOOW-1">
          <mxGeometry x="280" y="720" width="40" height="20" as="geometry" />
        </mxCell>
        <mxCell id="BrMgeqKoToxfEwKKxOOW-19" value="" style="whiteSpace=wrap;html=1;fillColor=#ffcc99;strokeColor=#36393d;opacity=30;" vertex="1" parent="BrMgeqKoToxfEwKKxOOW-1">
          <mxGeometry x="280" y="740" width="40" height="20" as="geometry" />
        </mxCell>
        <mxCell id="BrMgeqKoToxfEwKKxOOW-20" value="" style="whiteSpace=wrap;html=1;fillColor=#ffcc99;strokeColor=#36393d;opacity=30;" vertex="1" parent="BrMgeqKoToxfEwKKxOOW-1">
          <mxGeometry x="240" y="700" width="40" height="20" as="geometry" />
        </mxCell>
        <mxCell id="BrMgeqKoToxfEwKKxOOW-21" value="a" style="whiteSpace=wrap;html=1;fillColor=#ffcc99;strokeColor=#36393d;" vertex="1" parent="BrMgeqKoToxfEwKKxOOW-1">
          <mxGeometry x="240" y="720" width="40" height="20" as="geometry" />
        </mxCell>
        <mxCell id="BrMgeqKoToxfEwKKxOOW-22" value="" style="whiteSpace=wrap;html=1;fillColor=#ffcc99;strokeColor=#36393d;opacity=30;" vertex="1" parent="BrMgeqKoToxfEwKKxOOW-1">
          <mxGeometry x="240" y="740" width="40" height="20" as="geometry" />
        </mxCell>
      </root>
    </mxGraphModel>
  </diagram>
  <diagram id="TkwV2XG1rjLU8UNIj1qF" name="if-minus">
    <mxGraphModel dx="484" dy="686" grid="1" gridSize="10" guides="1" tooltips="1" connect="1" arrows="1" fold="1" page="1" pageScale="1" pageWidth="850" pageHeight="1100" math="1" shadow="0">
      <root>
        <mxCell id="0" />
        <mxCell id="1" parent="0" />
        <mxCell id="hWGfK-u05pnzI8GwrAeG-1" value="advice" style="whiteSpace=wrap;html=1;fillColor=#a0522d;fontColor=#ffffff;strokeColor=#6D1F00;" vertex="1" parent="1">
          <mxGeometry x="200" y="680" width="200" height="20" as="geometry" />
        </mxCell>
        <mxCell id="hWGfK-u05pnzI8GwrAeG-2" value="" style="whiteSpace=wrap;html=1;fillColor=#ffcc99;strokeColor=#36393d;opacity=30;" vertex="1" parent="1">
          <mxGeometry x="360" y="700" width="40" height="20" as="geometry" />
        </mxCell>
        <mxCell id="hWGfK-u05pnzI8GwrAeG-3" value="inv" style="whiteSpace=wrap;html=1;fillColor=#ffcc99;strokeColor=#36393d;" vertex="1" parent="1">
          <mxGeometry x="360" y="720" width="40" height="20" as="geometry" />
        </mxCell>
        <mxCell id="hWGfK-u05pnzI8GwrAeG-4" value="" style="whiteSpace=wrap;html=1;fillColor=#ffcc99;strokeColor=#36393d;opacity=30;" vertex="1" parent="1">
          <mxGeometry x="360" y="740" width="40" height="20" as="geometry" />
        </mxCell>
        <mxCell id="hWGfK-u05pnzI8GwrAeG-5" value="selector" style="whiteSpace=wrap;html=1;fillColor=#647687;fontColor=#ffffff;strokeColor=#314354;" vertex="1" parent="1">
          <mxGeometry x="400" y="680" width="60" height="20" as="geometry" />
        </mxCell>
        <mxCell id="hWGfK-u05pnzI8GwrAeG-6" value="" style="whiteSpace=wrap;html=1;fillColor=#f9f7ed;strokeColor=#36393d;opacity=30;" vertex="1" parent="1">
          <mxGeometry x="400" y="700" width="60" height="20" as="geometry" />
        </mxCell>
        <mxCell id="hWGfK-u05pnzI8GwrAeG-7" value="s" style="whiteSpace=wrap;html=1;fillColor=#f9f7ed;strokeColor=#36393d;" vertex="1" parent="1">
          <mxGeometry x="400" y="720" width="60" height="20" as="geometry" />
        </mxCell>
        <mxCell id="hWGfK-u05pnzI8GwrAeG-8" value="" style="whiteSpace=wrap;html=1;fillColor=#f9f7ed;strokeColor=#36393d;opacity=30;" vertex="1" parent="1">
          <mxGeometry x="400" y="740" width="60" height="20" as="geometry" />
        </mxCell>
        <mxCell id="hWGfK-u05pnzI8GwrAeG-9" value="&lt;div&gt;if a == b {c} else {a - b}&lt;br&gt;&lt;/div&gt;&lt;div&gt;&lt;br&gt;&lt;/div&gt;Gates:&lt;div&gt;s × (a - b) ×&amp;nbsp;(1 - ((a - b) ×&amp;nbsp;inv)&lt;br&gt;&lt;div&gt;s × (1 - (a - b) ×&amp;nbsp;inv) ×&amp;nbsp;(out - c)) = 0&lt;/div&gt;&lt;div&gt;s × (1 - (1- (a - b) ×&amp;nbsp;inv)) ×&amp;nbsp;(out - (a - b))) = 0&lt;br&gt;&lt;/div&gt;&lt;/div&gt;" style="text;html=1;align=left;verticalAlign=middle;resizable=0;points=[];autosize=1;strokeColor=none;fillColor=none;" vertex="1" parent="1">
          <mxGeometry x="200" y="760" width="260" height="100" as="geometry" />
        </mxCell>
        <mxCell id="hWGfK-u05pnzI8GwrAeG-26" value="" style="whiteSpace=wrap;html=1;fillColor=#ffcc99;strokeColor=#36393d;opacity=30;" vertex="1" parent="1">
          <mxGeometry x="320" y="700" width="40" height="20" as="geometry" />
        </mxCell>
        <mxCell id="hWGfK-u05pnzI8GwrAeG-27" value="out" style="whiteSpace=wrap;html=1;fillColor=#ffcc99;strokeColor=#36393d;" vertex="1" parent="1">
          <mxGeometry x="320" y="720" width="40" height="20" as="geometry" />
        </mxCell>
        <mxCell id="hWGfK-u05pnzI8GwrAeG-28" value="" style="whiteSpace=wrap;html=1;fillColor=#ffcc99;strokeColor=#36393d;opacity=30;" vertex="1" parent="1">
          <mxGeometry x="320" y="740" width="40" height="20" as="geometry" />
        </mxCell>
        <mxCell id="hWGfK-u05pnzI8GwrAeG-29" value="" style="whiteSpace=wrap;html=1;fillColor=#ffcc99;strokeColor=#36393d;opacity=30;" vertex="1" parent="1">
          <mxGeometry x="280" y="700" width="40" height="20" as="geometry" />
        </mxCell>
        <mxCell id="hWGfK-u05pnzI8GwrAeG-30" value="c" style="whiteSpace=wrap;html=1;fillColor=#ffcc99;strokeColor=#36393d;" vertex="1" parent="1">
          <mxGeometry x="280" y="720" width="40" height="20" as="geometry" />
        </mxCell>
        <mxCell id="hWGfK-u05pnzI8GwrAeG-31" value="" style="whiteSpace=wrap;html=1;fillColor=#ffcc99;strokeColor=#36393d;opacity=30;" vertex="1" parent="1">
          <mxGeometry x="280" y="740" width="40" height="20" as="geometry" />
        </mxCell>
        <mxCell id="hWGfK-u05pnzI8GwrAeG-32" value="" style="whiteSpace=wrap;html=1;fillColor=#ffcc99;strokeColor=#36393d;opacity=30;" vertex="1" parent="1">
          <mxGeometry x="240" y="700" width="40" height="20" as="geometry" />
        </mxCell>
        <mxCell id="hWGfK-u05pnzI8GwrAeG-33" value="b" style="whiteSpace=wrap;html=1;fillColor=#ffcc99;strokeColor=#36393d;" vertex="1" parent="1">
          <mxGeometry x="240" y="720" width="40" height="20" as="geometry" />
        </mxCell>
        <mxCell id="hWGfK-u05pnzI8GwrAeG-34" value="" style="whiteSpace=wrap;html=1;fillColor=#ffcc99;strokeColor=#36393d;opacity=30;" vertex="1" parent="1">
          <mxGeometry x="240" y="740" width="40" height="20" as="geometry" />
        </mxCell>
        <mxCell id="hWGfK-u05pnzI8GwrAeG-35" value="" style="whiteSpace=wrap;html=1;fillColor=#ffcc99;strokeColor=#36393d;opacity=30;" vertex="1" parent="1">
          <mxGeometry x="200" y="700" width="40" height="20" as="geometry" />
        </mxCell>
        <mxCell id="hWGfK-u05pnzI8GwrAeG-36" value="a" style="whiteSpace=wrap;html=1;fillColor=#ffcc99;strokeColor=#36393d;" vertex="1" parent="1">
          <mxGeometry x="200" y="720" width="40" height="20" as="geometry" />
        </mxCell>
        <mxCell id="hWGfK-u05pnzI8GwrAeG-37" value="" style="whiteSpace=wrap;html=1;fillColor=#ffcc99;strokeColor=#36393d;opacity=30;" vertex="1" parent="1">
          <mxGeometry x="200" y="740" width="40" height="20" as="geometry" />
        </mxCell>
      </root>
    </mxGraphModel>
  </diagram>
  <diagram name="swap-uc" id="fDRCG-U3G9l5qqzU2QH9">
    <mxGraphModel dx="581" dy="823" grid="1" gridSize="10" guides="1" tooltips="1" connect="1" arrows="1" fold="1" page="1" pageScale="1" pageWidth="850" pageHeight="1100" math="1" shadow="0">
      <root>
        <mxCell id="QxZ2ewSQ6xPUF2UDOQ3w-0" />
        <mxCell id="QxZ2ewSQ6xPUF2UDOQ3w-1" parent="QxZ2ewSQ6xPUF2UDOQ3w-0" />
        <mxCell id="QxZ2ewSQ6xPUF2UDOQ3w-2" value="advice" style="whiteSpace=wrap;html=1;fillColor=#a0522d;fontColor=#ffffff;strokeColor=#6D1F00;" vertex="1" parent="QxZ2ewSQ6xPUF2UDOQ3w-1">
          <mxGeometry x="280" y="680" width="120" height="20" as="geometry" />
        </mxCell>
        <mxCell id="QxZ2ewSQ6xPUF2UDOQ3w-3" value="selector" style="whiteSpace=wrap;html=1;fillColor=#647687;fontColor=#ffffff;strokeColor=#314354;" vertex="1" parent="QxZ2ewSQ6xPUF2UDOQ3w-1">
          <mxGeometry x="400" y="680" width="60" height="20" as="geometry" />
        </mxCell>
        <mxCell id="QxZ2ewSQ6xPUF2UDOQ3w-4" value="" style="whiteSpace=wrap;html=1;fillColor=#f9f7ed;strokeColor=#36393d;opacity=30;" vertex="1" parent="QxZ2ewSQ6xPUF2UDOQ3w-1">
          <mxGeometry x="400" y="700" width="60" height="20" as="geometry" />
        </mxCell>
        <mxCell id="QxZ2ewSQ6xPUF2UDOQ3w-5" value="s" style="whiteSpace=wrap;html=1;fillColor=#f9f7ed;strokeColor=#36393d;" vertex="1" parent="QxZ2ewSQ6xPUF2UDOQ3w-1">
          <mxGeometry x="400" y="720" width="60" height="20" as="geometry" />
        </mxCell>
        <mxCell id="QxZ2ewSQ6xPUF2UDOQ3w-6" value="" style="whiteSpace=wrap;html=1;fillColor=#f9f7ed;strokeColor=#36393d;opacity=30;" vertex="1" parent="QxZ2ewSQ6xPUF2UDOQ3w-1">
          <mxGeometry x="400" y="740" width="60" height="20" as="geometry" />
        </mxCell>
        <mxCell id="QxZ2ewSQ6xPUF2UDOQ3w-7" value="&lt;div&gt;if w {c,d=b,a} else {c,d=a,b}&lt;br&gt;&lt;/div&gt;&lt;div&gt;&lt;br&gt;&lt;/div&gt;Gates:&lt;div&gt;s × (2w(b - a) - (c - a) - (b - d)) = 0&lt;/div&gt;&lt;div&gt;s ×&amp;nbsp;w ×&amp;nbsp;(1 - w) = 0&lt;/div&gt;" style="text;html=1;align=left;verticalAlign=middle;resizable=0;points=[];autosize=1;strokeColor=none;fillColor=none;" vertex="1" parent="QxZ2ewSQ6xPUF2UDOQ3w-1">
          <mxGeometry x="280" y="780" width="200" height="90" as="geometry" />
        </mxCell>
        <mxCell id="QxZ2ewSQ6xPUF2UDOQ3w-11" value="" style="whiteSpace=wrap;html=1;fillColor=#ffcc99;strokeColor=#36393d;opacity=30;" vertex="1" parent="QxZ2ewSQ6xPUF2UDOQ3w-1">
          <mxGeometry x="360" y="700" width="40" height="20" as="geometry" />
        </mxCell>
        <mxCell id="QxZ2ewSQ6xPUF2UDOQ3w-12" value="w" style="whiteSpace=wrap;html=1;fillColor=#ffcc99;strokeColor=#36393d;" vertex="1" parent="QxZ2ewSQ6xPUF2UDOQ3w-1">
          <mxGeometry x="360" y="720" width="40" height="20" as="geometry" />
        </mxCell>
        <mxCell id="QxZ2ewSQ6xPUF2UDOQ3w-13" value="" style="whiteSpace=wrap;html=1;fillColor=#ffcc99;strokeColor=#36393d;opacity=30;" vertex="1" parent="QxZ2ewSQ6xPUF2UDOQ3w-1">
          <mxGeometry x="360" y="740" width="40" height="20" as="geometry" />
        </mxCell>
        <mxCell id="QxZ2ewSQ6xPUF2UDOQ3w-14" value="" style="whiteSpace=wrap;html=1;fillColor=#ffcc99;strokeColor=#36393d;opacity=30;" vertex="1" parent="QxZ2ewSQ6xPUF2UDOQ3w-1">
          <mxGeometry x="320" y="700" width="40" height="20" as="geometry" />
        </mxCell>
        <mxCell id="QxZ2ewSQ6xPUF2UDOQ3w-15" value="b" style="whiteSpace=wrap;html=1;fillColor=#ffcc99;strokeColor=#36393d;" vertex="1" parent="QxZ2ewSQ6xPUF2UDOQ3w-1">
          <mxGeometry x="320" y="720" width="40" height="20" as="geometry" />
        </mxCell>
        <mxCell id="QxZ2ewSQ6xPUF2UDOQ3w-16" value="d" style="whiteSpace=wrap;html=1;fillColor=#ffcc99;strokeColor=#36393d;" vertex="1" parent="QxZ2ewSQ6xPUF2UDOQ3w-1">
          <mxGeometry x="320" y="740" width="40" height="20" as="geometry" />
        </mxCell>
        <mxCell id="QxZ2ewSQ6xPUF2UDOQ3w-17" value="" style="whiteSpace=wrap;html=1;fillColor=#ffcc99;strokeColor=#36393d;opacity=30;" vertex="1" parent="QxZ2ewSQ6xPUF2UDOQ3w-1">
          <mxGeometry x="280" y="700" width="40" height="20" as="geometry" />
        </mxCell>
        <mxCell id="QxZ2ewSQ6xPUF2UDOQ3w-18" value="a" style="whiteSpace=wrap;html=1;fillColor=#ffcc99;strokeColor=#36393d;" vertex="1" parent="QxZ2ewSQ6xPUF2UDOQ3w-1">
          <mxGeometry x="280" y="720" width="40" height="20" as="geometry" />
        </mxCell>
        <mxCell id="QxZ2ewSQ6xPUF2UDOQ3w-19" value="c" style="whiteSpace=wrap;html=1;fillColor=#ffcc99;strokeColor=#36393d;" vertex="1" parent="QxZ2ewSQ6xPUF2UDOQ3w-1">
          <mxGeometry x="280" y="740" width="40" height="20" as="geometry" />
        </mxCell>
        <mxCell id="NR8rOXzy6DK1SrvPvAKU-0" value="" style="whiteSpace=wrap;html=1;fillColor=#f9f7ed;strokeColor=#36393d;opacity=30;" vertex="1" parent="QxZ2ewSQ6xPUF2UDOQ3w-1">
          <mxGeometry x="400" y="760" width="60" height="20" as="geometry" />
        </mxCell>
        <mxCell id="NR8rOXzy6DK1SrvPvAKU-2" value="" style="whiteSpace=wrap;html=1;fillColor=#ffcc99;strokeColor=#36393d;opacity=30;" vertex="1" parent="QxZ2ewSQ6xPUF2UDOQ3w-1">
          <mxGeometry x="360" y="760" width="40" height="20" as="geometry" />
        </mxCell>
        <mxCell id="NR8rOXzy6DK1SrvPvAKU-3" value="" style="whiteSpace=wrap;html=1;fillColor=#ffcc99;strokeColor=#36393d;opacity=30;" vertex="1" parent="QxZ2ewSQ6xPUF2UDOQ3w-1">
          <mxGeometry x="320" y="760" width="40" height="20" as="geometry" />
        </mxCell>
        <mxCell id="NR8rOXzy6DK1SrvPvAKU-4" value="" style="whiteSpace=wrap;html=1;fillColor=#ffcc99;strokeColor=#36393d;opacity=30;" vertex="1" parent="QxZ2ewSQ6xPUF2UDOQ3w-1">
          <mxGeometry x="280" y="760" width="40" height="20" as="geometry" />
        </mxCell>
        <mxCell id="sXFmhFOkahfpY8FksfTN-0" value="❌" style="text;whiteSpace=wrap;align=center;verticalAlign=middle;" vertex="1" parent="QxZ2ewSQ6xPUF2UDOQ3w-1">
          <mxGeometry x="280" y="645" width="20" height="20" as="geometry" />
        </mxCell>
        <mxCell id="sXFmhFOkahfpY8FksfTN-1" value="under-constraints example" style="text;html=1;align=left;verticalAlign=middle;resizable=0;points=[];autosize=1;strokeColor=none;fillColor=none;" vertex="1" parent="QxZ2ewSQ6xPUF2UDOQ3w-1">
          <mxGeometry x="300" y="640" width="160" height="30" as="geometry" />
        </mxCell>
      </root>
    </mxGraphModel>
  </diagram>
</mxfile>
